<mxfile host="app.diagrams.net" modified="2022-10-02T06:48:09.170Z" agent="5.0 (Windows NT 10.0; Win64; x64) AppleWebKit/537.36 (KHTML, like Gecko) Chrome/104.0.5112.122 Whale/3.16.138.27 Safari/537.36" etag="9h6cuWgFPplE-nHtsWzR" version="20.4.0" type="github">
  <diagram id="C5RBs43oDa-KdzZeNtuy" name="Page-1">
    <mxGraphModel dx="992" dy="547" grid="0" gridSize="10" guides="1" tooltips="1" connect="1" arrows="1" fold="1" page="1" pageScale="1" pageWidth="827" pageHeight="1169" background="none" math="0" shadow="0">
      <root>
        <mxCell id="WIyWlLk6GJQsqaUBKTNV-0" />
        <mxCell id="WIyWlLk6GJQsqaUBKTNV-1" parent="WIyWlLk6GJQsqaUBKTNV-0" />
        <mxCell id="yjvcgPjNSmbXjOnlVXXB-35" style="edgeStyle=orthogonalEdgeStyle;rounded=0;orthogonalLoop=1;jettySize=auto;html=1;entryX=0.5;entryY=0;entryDx=0;entryDy=0;strokeColor=#457B9D;fontColor=#1D3557;labelBackgroundColor=#F1FAEE;strokeWidth=2;" parent="WIyWlLk6GJQsqaUBKTNV-1" target="yjvcgPjNSmbXjOnlVXXB-2" edge="1">
          <mxGeometry relative="1" as="geometry">
            <mxPoint x="550" y="118" as="sourcePoint" />
          </mxGeometry>
        </mxCell>
        <mxCell id="WIyWlLk6GJQsqaUBKTNV-3" value="Start" style="rounded=1;whiteSpace=wrap;html=1;fontSize=14;glass=0;strokeWidth=1;shadow=0;fillColor=#A8DADC;strokeColor=#457B9D;fontColor=#1D3557;fontStyle=1;labelBorderColor=none;" parent="WIyWlLk6GJQsqaUBKTNV-1" vertex="1">
          <mxGeometry x="485" y="80" width="120" height="40" as="geometry" />
        </mxCell>
        <mxCell id="yjvcgPjNSmbXjOnlVXXB-22" style="edgeStyle=orthogonalEdgeStyle;rounded=0;orthogonalLoop=1;jettySize=auto;html=1;strokeColor=#457B9D;fontColor=#1D3557;labelBackgroundColor=#F1FAEE;strokeWidth=2;" parent="WIyWlLk6GJQsqaUBKTNV-1" source="WIyWlLk6GJQsqaUBKTNV-6" edge="1">
          <mxGeometry relative="1" as="geometry">
            <mxPoint x="240" y="430" as="targetPoint" />
            <Array as="points">
              <mxPoint x="240" y="370" />
              <mxPoint x="240" y="430" />
            </Array>
          </mxGeometry>
        </mxCell>
        <mxCell id="yjvcgPjNSmbXjOnlVXXB-25" style="edgeStyle=orthogonalEdgeStyle;rounded=0;orthogonalLoop=1;jettySize=auto;html=1;entryX=0;entryY=0.5;entryDx=0;entryDy=0;strokeColor=#457B9D;fontColor=#1D3557;labelBackgroundColor=#F1FAEE;strokeWidth=2;" parent="WIyWlLk6GJQsqaUBKTNV-1" source="WIyWlLk6GJQsqaUBKTNV-6" target="yjvcgPjNSmbXjOnlVXXB-3" edge="1">
          <mxGeometry relative="1" as="geometry" />
        </mxCell>
        <mxCell id="WIyWlLk6GJQsqaUBKTNV-6" value="Is_Detect?" style="rhombus;whiteSpace=wrap;html=1;shadow=0;fontFamily=Helvetica;fontSize=14;align=center;strokeWidth=1;spacing=6;spacingTop=-4;fillColor=#A8DADC;strokeColor=#457B9D;fontColor=#1D3557;fontStyle=1" parent="WIyWlLk6GJQsqaUBKTNV-1" vertex="1">
          <mxGeometry x="310" y="330" width="121" height="80" as="geometry" />
        </mxCell>
        <mxCell id="yjvcgPjNSmbXjOnlVXXB-32" style="edgeStyle=orthogonalEdgeStyle;rounded=0;orthogonalLoop=1;jettySize=auto;html=1;entryX=0.5;entryY=0;entryDx=0;entryDy=0;strokeColor=#457B9D;fontColor=#1D3557;labelBackgroundColor=#F1FAEE;strokeWidth=2;" parent="WIyWlLk6GJQsqaUBKTNV-1" source="yjvcgPjNSmbXjOnlVXXB-2" target="WIyWlLk6GJQsqaUBKTNV-6" edge="1">
          <mxGeometry relative="1" as="geometry" />
        </mxCell>
        <mxCell id="yjvcgPjNSmbXjOnlVXXB-2" value="1. direction : FRONT&lt;br style=&quot;font-size: 14px;&quot;&gt;2. distance : 0450" style="shape=parallelogram;perimeter=parallelogramPerimeter;whiteSpace=wrap;html=1;fixedSize=1;fillColor=#A8DADC;strokeColor=#457B9D;fontColor=#1D3557;fontSize=14;fontStyle=1" parent="WIyWlLk6GJQsqaUBKTNV-1" vertex="1">
          <mxGeometry x="480" y="160" width="139" height="70" as="geometry" />
        </mxCell>
        <mxCell id="yjvcgPjNSmbXjOnlVXXB-26" style="edgeStyle=orthogonalEdgeStyle;rounded=0;orthogonalLoop=1;jettySize=auto;html=1;strokeColor=#457B9D;fontColor=#1D3557;labelBackgroundColor=#F1FAEE;strokeWidth=2;" parent="WIyWlLk6GJQsqaUBKTNV-1" source="yjvcgPjNSmbXjOnlVXXB-3" edge="1">
          <mxGeometry relative="1" as="geometry">
            <mxPoint x="371" y="290" as="targetPoint" />
            <Array as="points">
              <mxPoint x="680" y="370" />
              <mxPoint x="680" y="290" />
              <mxPoint x="382" y="290" />
            </Array>
          </mxGeometry>
        </mxCell>
        <mxCell id="yjvcgPjNSmbXjOnlVXXB-3" value="1. detect : True&lt;br style=&quot;font-size: 14px;&quot;&gt;2. distance : 0234" style="shape=document;whiteSpace=wrap;html=1;boundedLbl=1;fillColor=#EA6B66;strokeColor=#457B9D;fontColor=#1D3557;fontSize=14;fontStyle=1" parent="WIyWlLk6GJQsqaUBKTNV-1" vertex="1">
          <mxGeometry x="500" y="330" width="120" height="80" as="geometry" />
        </mxCell>
        <mxCell id="yjvcgPjNSmbXjOnlVXXB-40" style="edgeStyle=orthogonalEdgeStyle;rounded=0;orthogonalLoop=1;jettySize=auto;html=1;entryX=0.5;entryY=0;entryDx=0;entryDy=0;fontColor=#1D3557;strokeColor=#457B9D;labelBackgroundColor=#F1FAEE;strokeWidth=2;" parent="WIyWlLk6GJQsqaUBKTNV-1" source="yjvcgPjNSmbXjOnlVXXB-5" target="yjvcgPjNSmbXjOnlVXXB-13" edge="1">
          <mxGeometry relative="1" as="geometry" />
        </mxCell>
        <mxCell id="yjvcgPjNSmbXjOnlVXXB-5" value="1. detect : False&lt;br style=&quot;font-size: 14px;&quot;&gt;2. distance : 0450" style="shape=document;whiteSpace=wrap;html=1;boundedLbl=1;size=0.375;fillColor=#EA6B66;strokeColor=#457B9D;fontColor=#1D3557;fontSize=14;fontStyle=1" parent="WIyWlLk6GJQsqaUBKTNV-1" vertex="1">
          <mxGeometry x="180" y="430" width="120" height="70" as="geometry" />
        </mxCell>
        <mxCell id="yjvcgPjNSmbXjOnlVXXB-14" value="1. FRONT =&amp;gt; BACK&lt;br style=&quot;font-size: 14px;&quot;&gt;2.BeforeDis =&amp;gt; CurDis" style="rounded=0;whiteSpace=wrap;html=1;fillColor=#A8DADC;strokeColor=#457B9D;fontColor=#1D3557;fontSize=14;fontStyle=1" parent="WIyWlLk6GJQsqaUBKTNV-1" vertex="1">
          <mxGeometry x="491" y="256" width="156" height="68" as="geometry" />
        </mxCell>
        <mxCell id="yjvcgPjNSmbXjOnlVXXB-13" value="end" style="rounded=1;whiteSpace=wrap;html=1;fillColor=#A8DADC;strokeColor=#457B9D;fontColor=#1D3557;fontSize=14;fontStyle=1" parent="WIyWlLk6GJQsqaUBKTNV-1" vertex="1">
          <mxGeometry x="180" y="550" width="120" height="55" as="geometry" />
        </mxCell>
        <mxCell id="yjvcgPjNSmbXjOnlVXXB-24" value="" style="endArrow=none;dashed=1;html=1;dashPattern=1 3;strokeWidth=2;rounded=0;strokeColor=#457B9D;fontColor=#1D3557;labelBackgroundColor=#F1FAEE;" parent="WIyWlLk6GJQsqaUBKTNV-1" edge="1">
          <mxGeometry width="50" height="50" relative="1" as="geometry">
            <mxPoint x="460" y="610" as="sourcePoint" />
            <mxPoint x="460" y="40" as="targetPoint" />
          </mxGeometry>
        </mxCell>
        <mxCell id="yjvcgPjNSmbXjOnlVXXB-37" value="&lt;b&gt;&lt;font color=&quot;#cc0000&quot;&gt;NO&lt;/font&gt;&lt;/b&gt;" style="text;html=1;strokeColor=none;fillColor=none;align=center;verticalAlign=middle;whiteSpace=wrap;rounded=0;fontColor=#1D3557;" parent="WIyWlLk6GJQsqaUBKTNV-1" vertex="1">
          <mxGeometry x="240" y="340" width="49" height="20" as="geometry" />
        </mxCell>
        <mxCell id="Sr7X9LNrVZ8c9FAnFzB5-0" value="&lt;b&gt;&lt;font color=&quot;#cc0000&quot;&gt;YES&lt;/font&gt;&lt;/b&gt;" style="text;html=1;strokeColor=none;fillColor=none;align=center;verticalAlign=middle;whiteSpace=wrap;rounded=0;fontColor=#1D3557;" vertex="1" parent="WIyWlLk6GJQsqaUBKTNV-1">
          <mxGeometry x="431" y="350" width="49" height="20" as="geometry" />
        </mxCell>
      </root>
    </mxGraphModel>
  </diagram>
</mxfile>
